<?xml version="1.0" standalone="no"?>
<!DOCTYPE svg PUBLIC "-//W3C//DTD SVG 20010904//EN"
 "http://www.w3.org/TR/2001/REC-SVG-20010904/DTD/svg10.dtd">
<svg version="1.0" xmlns="http://www.w3.org/2000/svg"
 width="700.000000pt" height="700.000000pt" viewBox="0 0 700.000000 700.000000"
 preserveAspectRatio="xMidYMid meet">
<metadata>
Created by potrace 1.14, written by Peter Selinger 2001-2017
</metadata>
<g transform="translate(0.000000,700.000000) scale(0.100000,-0.100000)"
fill="#000000" stroke="none">
<path d="M3279 6756 c-2 -2 -40 -6 -84 -10 -406 -33 -818 -152 -1192 -346
-182 -94 -398 -231 -508 -321 -220 -182 -389 -351 -564 -564 -15 -19 -69 -94
-143 -200 -98 -141 -237 -408 -311 -595 -40 -102 -103 -289 -112 -330 -2 -8
-12 -51 -23 -95 -31 -121 -61 -298 -79 -460 -15 -142 -8 -621 12 -724 1 -9 6
-38 9 -66 49 -360 207 -809 402 -1142 50 -85 184 -288 220 -333 220 -271 396
-447 604 -606 361 -276 752 -465 1184 -574 83 -21 173 -41 200 -44 27 -4 52
-9 55 -10 3 -2 31 -7 61 -10 30 -4 66 -8 80 -10 119 -20 507 -27 661 -14 133
12 361 48 464 74 55 14 107 27 116 29 146 32 406 133 624 242 168 85 429 252
550 354 220 185 382 350 529 539 36 47 69 90 73 95 22 28 145 219 180 280 87
150 254 515 236 515 -3 0 -1 6 5 13 31 37 131 441 157 632 3 22 7 54 10 70 26
178 26 553 1 753 -4 26 -9 65 -12 87 -9 74 -35 209 -59 305 -93 379 -233 697
-451 1025 -205 310 -451 571 -751 797 -96 73 -267 188 -279 188 -3 0 -18 8
-32 19 -41 29 -267 143 -363 184 -271 115 -611 206 -869 232 -36 4 -74 9 -85
12 -22 5 -511 13 -516 9z"/>
</g>
</svg>
